<svg width="48" height="48" viewBox="0 0 48 48" fill="none" xmlns="http://www.w3.org/2000/svg">
<g clip-path="url(#clip0_58_8)">
<path d="M43.7427 0C41.421 0 39.5322 1.88887 39.5322 4.2105C39.5322 4.67269 39.6082 5.11725 39.7464 5.53369L22.4332 22.674C22.0138 22.5336 21.5656 22.4562 21.0995 22.4562C20.6353 22.4562 20.1889 22.5328 19.771 22.6723L16.6731 19.5743C16.8125 19.1564 16.889 18.7101 16.889 18.2459C16.889 15.9242 15.0001 14.0354 12.6785 14.0354C10.3567 14.0354 8.46797 15.9243 8.46797 18.2459C8.46797 18.7101 8.54456 19.1564 8.68387 19.5743L5.5859 22.6723C5.16806 22.5329 4.72162 22.4562 4.25747 22.4562C1.93575 22.4562 0.0469666 24.3451 0.0469666 26.6667C0.0469666 28.9884 1.93584 30.8772 4.25747 30.8772C6.57909 30.8772 8.46797 28.9883 8.46797 26.6667C8.46797 25.8389 8.22684 25.0669 7.81265 24.4151L10.427 21.8009C11.0786 22.2151 11.8507 22.4561 12.6786 22.4561C13.5064 22.4561 14.2784 22.215 14.9302 21.8009L17.5445 24.4151C17.1303 25.0669 16.8892 25.8389 16.8892 26.6667C16.8892 28.9884 18.778 30.8772 21.0997 30.8772C23.4213 30.8772 25.3102 28.9883 25.3102 26.6667C25.3102 25.8414 25.0705 25.0715 24.6586 24.421L41.4854 7.76203C42.1383 8.17847 42.9125 8.421 43.7427 8.421C46.0644 8.421 47.9532 6.53212 47.9532 4.2105C47.9532 1.88887 46.0643 0 43.7427 0ZM4.25728 28.0702C3.48337 28.0702 2.85375 27.4405 2.85375 26.6666C2.85375 25.8927 3.48337 25.2631 4.25728 25.2631C5.03119 25.2631 5.66081 25.8927 5.66081 26.6666C5.66081 27.4405 5.03119 28.0702 4.25728 28.0702ZM12.6784 19.6492C11.9045 19.6492 11.2748 19.0195 11.2748 18.2456C11.2748 17.4717 11.9045 16.8421 12.6784 16.8421C13.4523 16.8421 14.0819 17.4717 14.0819 18.2456C14.0819 19.0195 13.4523 19.6492 12.6784 19.6492ZM21.0994 28.0702C20.3255 28.0702 19.6958 27.4405 19.6958 26.6666C19.6958 25.8927 20.3255 25.2631 21.0994 25.2631C21.8733 25.2631 22.5029 25.8927 22.5029 26.6666C22.5029 27.4405 21.8733 28.0702 21.0994 28.0702ZM43.7427 5.61403C42.9688 5.61403 42.3392 4.98441 42.3392 4.2105C42.3392 3.43659 42.9688 2.80697 43.7427 2.80697C44.5166 2.80697 45.1462 3.43659 45.1462 4.2105C45.1462 4.98441 44.5166 5.61403 43.7427 5.61403Z" fill="#0147FF"/>
<path d="M45.561 11.6355C44.258 12.929 21.8969 35.1255 21.1031 35.9134C20.9981 35.8084 13.7584 28.5685 13.6661 28.4769C13.1229 27.9384 12.2358 27.9318 11.6858 28.4814L3.26495 36.9023C3.00179 37.1657 2.85385 37.5225 2.85385 37.8948V46.5966C2.85385 47.3717 3.48226 48.0001 4.25738 48.0001H46.5497C47.3248 48.0001 47.9532 47.3717 47.9532 46.5966V12.6316C47.9532 11.3866 46.4444 10.7583 45.561 11.6355ZM11.2749 45.1929H5.66082V38.476L11.2749 32.862V45.1929ZM19.6959 45.1929H14.0819V32.862L19.6959 38.4759V45.1929ZM28.2177 45.1929H22.5029V38.4789L28.2177 32.8526V45.1929ZM36.452 45.1929H31.006V30.0663L36.452 24.7069V45.1929ZM45.1462 45.1929H39.2402V21.9205L45.1462 16.0023V45.1929Z" fill="#0147FF"/>
</g>
<defs>
<clipPath id="clip0_58_8">
<rect width="48" height="48" fill="white"/>
</clipPath>
</defs>
</svg>
