<svg width="48" height="48" viewBox="0 0 48 48" fill="none" xmlns="http://www.w3.org/2000/svg" >
<g clip-path="url(#clip0_60_35)">
<mask id="mask0_60_35" style="mask-type:luminance" maskUnits="userSpaceOnUse" x="0" y="0" width="48" height="48">
<path d="M0 3.8147e-06H48V48H0V3.8147e-06Z" fill="white"/>
</mask>
<g mask="url(#mask0_60_35)">
<path d="M41.6552 37.9403H6.38368C5.06115 37.9403 3.98912 36.8694 3.98912 35.5484V6.52743H44.0498V35.5484C44.0498 36.8694 42.9777 37.9403 41.6552 37.9403Z" stroke="#0147FF" stroke-width="2.8125" stroke-miterlimit="10"/>
<path d="M44.0579 6.52744H3.981C2.56969 6.52744 1.42566 5.38341 1.42566 3.97219V3.9616C1.42566 2.55029 2.56969 1.40626 3.981 1.40626H44.0579C45.4691 1.40626 46.6132 2.55029 46.6132 3.9616V3.97219C46.6132 5.38341 45.4691 6.52744 44.0579 6.52744Z" stroke="#0147FF" stroke-width="2.8125" stroke-miterlimit="10"/>
<path d="M24.0194 37.9403V46.5487" stroke="#0147FF" stroke-width="2.8125" stroke-miterlimit="10" stroke-linecap="round"/>
<path d="M29.6444 46.5938L24.0564 37.9973C24.039 37.9705 23.9998 37.9705 23.9824 37.9973L18.3944 46.5938" stroke="#0147FF" stroke-width="2.8125" stroke-miterlimit="10" stroke-linecap="round"/>
<path d="M15.8554 15.3251C15.8554 17.02 14.4809 18.3939 12.7855 18.3939C11.09 18.3939 9.71567 17.02 9.71567 15.3251C9.71567 13.6303 11.09 12.2563 12.7855 12.2563C14.4809 12.2563 15.8554 13.6303 15.8554 15.3251Z" stroke="#0147FF" stroke-width="2.8125" stroke-miterlimit="10"/>
<path d="M39.2218 31.8232L34.7268 27.3296" stroke="#0147FF" stroke-width="2.8125" stroke-miterlimit="10" stroke-linecap="round"/>
<path d="M39.2218 27.3297L34.7268 31.8232" stroke="#0147FF" stroke-width="2.8125" stroke-miterlimit="10" stroke-linecap="round"/>
<path d="M11.2892 29.1125L20.5084 20.3375C20.8243 20.0732 21.291 20.0988 21.576 20.396L26.8536 25.9011C27.1897 26.2517 27.761 26.2147 28.0489 25.8234L36.4709 15.4421" stroke="#0147FF" stroke-width="2.8125" stroke-miterlimit="10" stroke-linecap="round"/>
<path d="M33.3729 15.6197L36.233 15.3713C36.4237 15.3547 36.5903 15.499 36.6011 15.6899L36.7496 18.3241" stroke="#0147FF" stroke-width="2.8125" stroke-miterlimit="10" stroke-linecap="round"/>
</g>
</g>
</svg>