<svg width="48" height="48" viewBox="0 0 48 48" fill="none" xmlns="http://www.w3.org/2000/svg">
<path d="M10.7442 9.32194V1.40625H16.4303H23.9192H37.9506L46.5938 10.0622V46.5938H10.7442V29.2373" stroke="#0147FF" stroke-width="2.8125" stroke-miterlimit="10" stroke-linecap="round" stroke-linejoin="round"/>
<path d="M46.5937 10.0622H37.9506V1.40625L46.5937 10.0622Z" stroke="#0147FF" stroke-width="2.8125" stroke-miterlimit="10" stroke-linecap="round" stroke-linejoin="round"/>
<path d="M40.9771 17.2471H34.2857" stroke="#0147FF" stroke-width="2.8125" stroke-miterlimit="10" stroke-linecap="round" stroke-linejoin="round"/>
<path d="M40.9771 22.8721H27.3344" stroke="#0147FF" stroke-width="2.8125" stroke-miterlimit="10" stroke-linecap="round" stroke-linejoin="round"/>
<path d="M40.9771 28.4971H31.4773" stroke="#0147FF" stroke-width="2.8125" stroke-miterlimit="10" stroke-linecap="round" stroke-linejoin="round"/>
<path d="M40.9771 39.8438H16.361" stroke="#0147FF" stroke-width="2.8125" stroke-miterlimit="10" stroke-linecap="round" stroke-linejoin="round"/>
<path d="M40.9771 34.2188H31.4773" stroke="#0147FF" stroke-width="2.8125" stroke-miterlimit="10" stroke-linecap="round" stroke-linejoin="round"/>
<path d="M25.8607 34.2188H16.361" stroke="#0147FF" stroke-width="2.8125" stroke-miterlimit="10" stroke-linecap="round" stroke-linejoin="round"/>
<path d="M17.8067 28.4972C23.7256 28.4972 28.5238 23.6919 28.5238 17.7642C28.5238 11.8366 23.7256 7.03125 17.8067 7.03125C11.8878 7.03125 7.0896 11.8366 7.0896 17.7642C7.0896 23.6919 11.8878 28.4972 17.8067 28.4972Z" stroke="#0147FF" stroke-width="2.8125" stroke-miterlimit="10" stroke-linecap="round" stroke-linejoin="round"/>
<path d="M12.478 27.0783L6.20038 33.3651C5.10323 34.4639 3.32554 34.4639 2.22848 33.3651C1.13226 32.2673 1.13226 30.4861 2.22848 29.3883L8.50607 23.1014" stroke="#0147FF" stroke-width="2.8125" stroke-miterlimit="10" stroke-linecap="round" stroke-linejoin="round"/>
<path d="M14.3298 17.5887L16.7648 20.0236L21.2836 15.5048" stroke="#0147FF" stroke-width="2.8125" stroke-miterlimit="10" stroke-linecap="round" stroke-linejoin="round"/>
</svg>
